<svg xmlns="http://www.w3.org/2000/svg" width="129" height="29" viewBox="0 0 129 29" fill="none"><path fill-rule="evenodd" clip-rule="evenodd" d="M3.775 3.576 15.56 29h.354c.026-.288.118-.681.275-1.179.183-.524.393-1.06.629-1.611.235-.55.445-1.035.628-1.454.21-.445.34-.747.393-.904l9.17-20.276h.025c.419-.89.943-1.52 1.572-1.886.654-.393 1.27-.59 1.846-.59h.354V.707h-8.409V1.1h.354c.498 0 .956.223 1.375.668.42.42.459 1.022.118 1.808h.005l-6.921 16.213-6.659-16.213h.019c-.288-.786-.249-1.389.118-1.808.393-.445.838-.668 1.336-.668h.353V.707H0V1.1h.314c.603 0 1.218.197 1.847.59.655.366 1.192.995 1.611 1.886h.003Zm36.483 24.638h-8.92v-.393h.511c.681 0 1.257-.236 1.729-.707.497-.498.76-1.087.786-1.768V3.576a2.427 2.427 0 0 0-.786-1.73 2.29 2.29 0 0 0-1.73-.746h-.51V.707h14.97c.577 0 1.18-.039 1.808-.118.655-.078 1.258-.17 1.808-.275.55-.104.943-.21 1.179-.314v6.877h-.393v-.472c0-1.205-.367-2.174-1.1-2.908-.595-.617-1.376-.983-2.341-1.1h-7.011v11.435h5.186c.97-.026 1.769-.354 2.397-.982.629-.655.943-1.467.943-2.437v-.275h.393v9.038h-.393v-.314c0-.97-.314-1.768-.943-2.397-.628-.629-1.427-.956-2.397-.983h-5.186v11.042h5.147c1.31 0 2.462-.248 3.458-.746a7.587 7.587 0 0 0 2.554-2.2c.707-.97 1.27-2.11 1.69-3.42h.393l-1.808 8.056H40.258ZM64.538.707h5.069c1.179 0 2.332.131 3.458.393 1.126.262 2.122.681 2.986 1.258a6.333 6.333 0 0 1 2.122 2.279c.524.943.786 2.109.786 3.497 0 1.1-.236 2.2-.707 3.301-.446 1.074-1.14 2.004-2.083 2.79-.943.76-2.161 1.218-3.654 1.375.838.262 1.598.734 2.279 1.415.707.681 1.284 1.362 1.729 2.043.026.053.17.288.432.708.288.419.629.943 1.022 1.571.419.603.851 1.219 1.296 1.847a46.49 46.49 0 0 0 1.218 1.65 18.38 18.38 0 0 0 1.572 1.73c.472.419.97.733 1.493.943.524.183 1.127.288 1.808.314h.053c.681 0 1.257-.236 1.729-.707.498-.498.76-1.087.786-1.768V3.576a2.427 2.427 0 0 0-.786-1.73 2.29 2.29 0 0 0-1.73-.746h-.51V.707h14.97c.577 0 1.18-.039 1.808-.118.655-.078 1.258-.17 1.808-.275.55-.104.943-.21 1.179-.314v6.877h-.393v-.472c0-1.205-.367-2.174-1.1-2.908-.595-.617-1.375-.983-2.341-1.1h-7.011v11.435h5.186c.97-.026 1.769-.354 2.397-.982.629-.655.943-1.467.943-2.437v-.275h.393v9.038h-.393v-.314c0-.97-.314-1.768-.943-2.397-.628-.629-1.427-.956-2.397-.983h-5.186v11.042h5.147c1.31 0 2.463-.248 3.458-.746a7.588 7.588 0 0 0 2.554-2.2c.707-.97 1.271-2.11 1.69-3.42h.393l-1.808 8.056H81.513c-1.415 0-2.698-.118-3.85-.354-1.153-.261-2.175-.694-3.066-1.296-.89-.603-1.663-1.415-2.318-2.437a17.4 17.4 0 0 1-.707-1.178l-.747-1.572a43.917 43.917 0 0 0-.786-1.572 147.04 147.04 0 0 1-.628-1.415 11.996 11.996 0 0 1-.393-.982c-.34-.838-.747-1.467-1.218-1.886-.446-.42-.93-.668-1.454-.747v-.393h1.218c.707 0 1.388-.144 2.043-.432.681-.288 1.284-.76 1.808-1.415.523-.655.89-1.559 1.1-2.711a6.23 6.23 0 0 0 .118-.825c.052-.315.065-.668.039-1.061-.079-1.887-.55-3.262-1.415-4.126-.864-.891-1.938-1.35-3.222-1.376a9.427 9.427 0 0 0-1.218 0H65.05v22.91c0 .68.249 1.27.747 1.768a2.484 2.484 0 0 0 1.768.707h.47v.393H56.13v-.393h.511c.681 0 1.258-.236 1.73-.707.497-.498.759-1.087.785-1.768V3.576a2.427 2.427 0 0 0-.786-1.73 2.29 2.29 0 0 0-1.73-.746h-.511V.707h8.409Zm54.429-.55c.524 0 1.166.026 1.925.079.786.052 1.585.13 2.397.236.266.024.519.05.761.078h2.736l-.044.47.005.002-.471 5.305h-.393c0-1.363-.511-2.45-1.533-3.262-.995-.838-2.331-1.257-4.008-1.257-1.519 0-2.75.366-3.693 1.1-.917.733-1.402 1.624-1.454 2.672a2.795 2.795 0 0 0 .746 2.043c.524.577 1.192 1.114 2.004 1.611l7.505 4.873c1.205.681 2.109 1.572 2.712 2.672.628 1.1.903 2.384.825 3.851-.131 2.567-1.113 4.571-2.947 6.012-1.834 1.415-4.322 2.122-7.466 2.122-1.152 0-2.279-.105-3.379-.314-1.074-.183-2.03-.445-2.869-.786-.838-.367-1.506-.799-2.003-1.297-.21-.576-.302-1.27-.276-2.082.027-.813.145-1.638.354-2.476.236-.838.524-1.533.865-2.083h.353c-.105 1.336.131 2.58.707 3.733a6.965 6.965 0 0 0 2.594 2.712c1.152.655 2.515.969 4.086.943 1.729-.026 3.065-.459 4.008-1.297.943-.864 1.415-1.9 1.415-3.104 0-.812-.249-1.546-.747-2.2-.471-.656-1.257-1.285-2.357-1.887l-6.877-4.558c-1.388-.786-2.397-1.795-3.025-3.026-.629-1.231-.878-2.567-.747-4.008.131-1.362.537-2.554 1.218-3.576.681-1.048 1.611-1.86 2.79-2.436 1.205-.577 2.633-.865 4.283-.865Z" fill="#fff"></path></svg>