<svg xmlns="http://www.w3.org/2000/svg" width="138" height="28" viewBox="0 0 138 28" fill="none"><path d="M10.056 4.634c-2.943 0-5.396 2.298-5.396 5.225v1.065c0 .307-.123.602-.341.819a1.168 1.168 0 0 1-1.648 0 1.155 1.155 0 0 1-.341-.82v-.87c0-4.312 3.586-7.736 7.92-7.736h23.788c.308 0 .605.122.823.34a1.155 1.155 0 0 1 0 1.638 1.17 1.17 0 0 1-.823.34h-9.903c-.644 0-1.223.435-1.223 1.075v3.559h-2.33v-3.56a1.038 1.038 0 0 0-.68-1.01 1.052 1.052 0 0 0-.427-.065h-9.419Z" fill="url(#a)"></path><path d="M14.757 15.213a3.58 3.58 0 0 1 1.047-2.56 3.62 3.62 0 0 1 2.564-1.067h7.456a3.695 3.695 0 0 1 2.595 1.058 3.654 3.654 0 0 1 1.094 2.57v3.903H14.757v-3.904Z" fill="url(#b)"></path><path d="M8.81 23.632c-.179.434-.27.9-.267 1.369V28h27.184v-3a3.6 3.6 0 0 0-1.091-2.537 3.639 3.639 0 0 0-2.575-1.029H12.132a3.578 3.578 0 0 0-2.544 1.037 3.542 3.542 0 0 0-.778 1.16Z" fill="url(#c)"></path><path fill-rule="evenodd" clip-rule="evenodd" d="M47.196 9.432 55.742 28h.256c.02-.21.086-.497.2-.86.133-.384.285-.776.456-1.178.17-.401.322-.755.455-1.061a7.61 7.61 0 0 0 .285-.66l6.649-14.809h.019c.304-.65.684-1.11 1.14-1.377.474-.287.92-.43 1.339-.43h.256v-.288H60.7v.287h.256c.36 0 .693.163.997.488.304.306.333.746.086 1.32h.003l-5.018 11.84-4.829-11.84h.014c-.21-.574-.18-1.014.085-1.32.285-.325.608-.488.969-.488h.256v-.287h-9.06v.287h.228c.437 0 .883.144 1.339.43.475.268.864.728 1.168 1.378h.002ZM73.65 27.426h-6.467v-.287h.37a1.7 1.7 0 0 0 1.254-.517c.36-.363.55-.794.57-1.29v-15.9a1.778 1.778 0 0 0-.57-1.263 1.655 1.655 0 0 0-1.254-.545h-.37v-.287h10.856c.417 0 .854-.029 1.31-.086.475-.057.912-.124 1.31-.2.4-.077.685-.154.856-.23v5.022h-.285v-.345c0-.88-.266-1.588-.798-2.123-.431-.45-.997-.719-1.697-.804H73.65v8.351h3.76c.704-.019 1.283-.258 1.739-.717.456-.478.683-1.071.683-1.78v-.2h.285v6.6h-.284v-.23c0-.707-.228-1.29-.684-1.75-.456-.459-1.035-.698-1.738-.717H73.65v8.064h3.732c.95 0 1.786-.182 2.508-.545a5.512 5.512 0 0 0 1.852-1.607c.512-.708.92-1.54 1.225-2.497h.285l-1.311 5.883H73.65ZM91.257 7.337h3.676c.854 0 1.69.096 2.507.287a6.509 6.509 0 0 1 2.166.918 4.619 4.619 0 0 1 1.538 1.665c.38.689.57 1.54.57 2.554 0 .804-.171 1.607-.513 2.41a5.24 5.24 0 0 1-1.51 2.038c-.684.555-1.567.89-2.65 1.005.608.191 1.159.536 1.653 1.033.513.497.93.995 1.253 1.492.02.039.124.21.314.517.209.306.456.689.741 1.148.304.44.617.89.94 1.349.323.459.617.86.883 1.205.418.517.798.938 1.14 1.263a3.72 3.72 0 0 0 1.083.689c.379.133.816.21 1.31.23h.039c.494 0 .912-.173 1.253-.518.361-.363.551-.794.57-1.29v-15.9a1.778 1.778 0 0 0-.57-1.263 1.652 1.652 0 0 0-1.253-.545h-.371v-.287h10.856c.418 0 .855-.029 1.311-.086.475-.057.911-.124 1.31-.2.399-.077.684-.154.855-.23v5.022h-.285v-.345c0-.88-.266-1.588-.798-2.123-.431-.45-.997-.719-1.697-.804h-5.084v8.351h3.761c.703-.019 1.282-.258 1.738-.717.456-.478.684-1.071.684-1.78v-.2h.285v6.6h-.285v-.23c0-.707-.228-1.29-.684-1.75-.456-.459-1.035-.698-1.738-.717h-3.761v8.064h3.733c.949 0 1.785-.182 2.507-.545a5.51 5.51 0 0 0 1.852-1.607c.513-.708.921-1.54 1.225-2.497h.285l-1.31 5.883h-17.22c-1.026 0-1.957-.086-2.792-.258a6.47 6.47 0 0 1-2.223-.947c-.646-.44-1.206-1.033-1.68-1.78a12.73 12.73 0 0 1-.514-.86c-.17-.364-.351-.747-.541-1.148-.19-.402-.38-.785-.57-1.148-.17-.383-.323-.727-.456-1.034a9.161 9.161 0 0 1-.285-.717c-.247-.612-.541-1.072-.883-1.378-.323-.306-.674-.487-1.054-.545v-.287h.883a3.62 3.62 0 0 0 1.482-.316c.493-.21.93-.554 1.31-1.033.38-.478.646-1.138.798-1.98.038-.172.067-.373.086-.602.038-.23.047-.488.028-.775-.057-1.378-.399-2.382-1.026-3.014-.627-.65-1.405-.985-2.336-1.004a6.49 6.49 0 0 0-.883 0h-1.283v16.73c0 .497.181.928.542 1.291.36.345.788.517 1.282.517h.342v.287H85.16v-.287h.37a1.7 1.7 0 0 0 1.254-.517c.36-.363.55-.794.57-1.29v-15.9a1.778 1.778 0 0 0-.57-1.263 1.655 1.655 0 0 0-1.254-.545h-.37v-.287h6.097Zm39.468-.402a28.084 28.084 0 0 1 3.134.23c.192.018.376.037.552.057h1.984l-.033.343.004.002-.342 3.874h-.284c0-.995-.371-1.789-1.112-2.382-.721-.612-1.69-.918-2.906-.918-1.102 0-1.994.268-2.678.803-.665.536-1.016 1.186-1.054 1.952a2.046 2.046 0 0 0 .541 1.492c.38.42.864.813 1.453 1.177l5.442 3.558c.874.498 1.529 1.148 1.966 1.952.456.803.655 1.74.598 2.812-.094 1.875-.807 3.339-2.136 4.391-1.33 1.033-3.135 1.55-5.414 1.55a12.97 12.97 0 0 1-2.45-.23 9.93 9.93 0 0 1-2.08-.574c-.608-.268-1.093-.583-1.454-.947-.152-.42-.218-.928-.199-1.52a8.638 8.638 0 0 1 .256-1.809c.171-.612.38-1.12.627-1.52h.257a5.123 5.123 0 0 0 .513 2.725 5.061 5.061 0 0 0 1.88 1.98c.836.479 1.824.709 2.963.69 1.254-.02 2.223-.335 2.907-.948.683-.63 1.025-1.387 1.025-2.267a2.6 2.6 0 0 0-.541-1.607c-.342-.478-.912-.937-1.71-1.377l-4.986-3.33c-1.007-.573-1.738-1.31-2.194-2.21-.456-.898-.636-1.874-.541-2.926.095-.995.389-1.866.883-2.612a4.96 4.96 0 0 1 2.023-1.78c.874-.42 1.909-.63 3.106-.63Z" fill="#fff"></path><defs><linearGradient id="a" x1="21.584" y1="2.317" x2="21.584" y2="43.469" gradientUnits="userSpaceOnUse"><stop stop-color="#fff"></stop><stop offset="1" stop-color="#fff" stop-opacity="0"></stop></linearGradient><linearGradient id="b" x1="21.584" y1="2.317" x2="21.584" y2="43.469" gradientUnits="userSpaceOnUse"><stop stop-color="#fff"></stop><stop offset="1" stop-color="#fff" stop-opacity="0"></stop></linearGradient><linearGradient id="c" x1="21.584" y1="2.317" x2="21.584" y2="43.469" gradientUnits="userSpaceOnUse"><stop stop-color="#fff"></stop><stop offset="1" stop-color="#fff" stop-opacity="0"></stop></linearGradient></defs></svg>